<svg xmlns="http://www.w3.org/2000/svg" width="909.14" height="496.58"><defs><clipPath id="a"><path d="M77.3 496.58S-83.06 276.35 58.15 148.4c0 0 64.42-79.46 216.09-54.05a83.88 83.88 0 0024.81.47c37.87-4.93 147.92-23 242.26-75.53a118 118 0 0135.42-12.91C636.53-4.89 803.05-20.2 851.83 145a180 180 0 012.17 93.45c-.15.6-.29 1.21-.44 1.82a175.78 175.78 0 0031.07 146.81c21.41 28.13 41.07 71.22 2.68 108.5z" transform="translate(16.18)" fill="none"/></clipPath><style>.ay,.n{fill:none}.d{fill:#ffad7e}.e{fill:#fda819}.f{opacity:.1}.g{fill:#333}.ay,.n{stroke-linecap:round;stroke-miterlimit:10}.m{fill:#2e4c92}.n{stroke:#a7a9ac}.ay,.n{stroke-width:2px}.o{fill:#9671ce}.ag{opacity:.81}.s{fill:#f7b990}.t{fill:#3d1709}.v{fill:#295095}.aj,.w{fill:#5a5a5b}.z{fill:#193864}.ab{opacity:.19}.ac{fill:#050505}.ae{fill:#6b82c0}.ai{fill:#f1cdb7}.aj{opacity:.75}.ak{fill:#fb9742}.al{fill:#db6a1c}.al,.ao,.ap,.aw{opacity:.43}.ao{fill:#b3c2fb}.ap{fill:#be6529}.av{fill:#f49a4c;opacity:.41}.aw{fill:#cb691e}.ay{opacity:.83;stroke:#db6a1c}.bc{fill:#78a41c}</style></defs><g clip-path="url(#a)" transform="translate(-16.177)"><path d="M93.48 496.58S-66.88 276.35 74.33 148.4c0 0 64.42-79.46 216.09-54.05a83.88 83.88 0 0024.81.47c37.87-4.93 147.92-23 242.26-75.53a118 118 0 0135.42-12.91C652.71-4.89 819.23-20.2 868.01 145a180 180 0 012.17 93.45c-.15.6-.29 1.21-.44 1.82a175.78 175.78 0 0031.07 146.81c21.41 28.13 41.07 71.22 2.68 108.5z" fill="#caa6ee" opacity=".29"/><ellipse class="d" cx="14.64" cy="20.87" rx="14.64" ry="20.87" transform="rotate(-23.7 514.406 -475.043)"/><path class="e" d="M335.24 252.23s-16.46 2.87-29.58 2.8c-8.71-.05-11.58-.4-13.56-1.4a32.829 32.829 0 00-6.83-2.67l-.59-.15-8.8-2.2-5.3-30.53 4 2.49 25.6 16.09c7.56 0 34.16 6.67 34.16 6.67z"/><path class="f" d="M284.68 250.81l-8.8-2.2-5.3-30.53 3.97 2.49z"/><path class="g" d="M197.81 477.83l-1.83 17.43 29 .76s7.8-1.68 3.82-5.65l-8.56-2.3s-2.29 0-9.17-7.87l-1.83-2.37zM252.69 477.83l-1.83 17.43 29 .76s7.8-1.68 3.82-5.65l-8.56-2.3s-2.29 0-9.17-7.87l-1.77-2.37z"/><path d="M247.65 387.11l-6 13.16-20.59 45.08-8.94 34.85h-15.38l2.07-36.92c1.83-23.61 13.3-51.82 13.3-51.82 2.63-4.66 6.88-36.75 7.83-44.12a13.449 13.449 0 00.07-2.69c-.91-11.18 3.79-32.53 3.79-32.53l12.09 3.65 6.94 2.09z" fill="#7527c1"/><path d="M245.85 391.58l-4.99 13.58-12.18-83.82 7.08 1.55z" opacity=".09"/><path d="M230.64 312.12l9.21 54.81s5.73 29.35 3 38.75 7.68 77 7.68 77l16.86-1.14 3.44-62.37 6.42-33.94s4.58-18.57 0-23.85l-3.21-48.15z" fill="#8d20e2"/><path class="d" d="M246.96 187.84s2.29 14.22 0 18.35 15.82 7.11 15.82 7.11l2.75-1.84s-5-17.2-2.52-19.72z"/><path d="M246.73 195.87s9.65.69 9.41-7.11-.24-10.24 3.43-8.79 4.36 1.45 5-3.82-3-8.26 2.3-11.24c0 0 4.81-8-8-9.17 0 0-12.61-.92-20.86 4.13s-7.34 8.25-7.34 8.25-.69 6.42 3.9 16.74 12.16 11.01 12.16 11.01z" fill="#142d4b"/><path stroke-width="4" stroke-miterlimit="10" stroke-linecap="round" stroke="#bcbec0" fill="none" d="M323.16 255.03l-6.12 18.61"/><path class="d" d="M307.57 263.35s5.2-4.58 11.92-4 7 5.43 7 5.43-1.83 8.8-6.11 7.19-12.84 0-12.84 0z"/><path class="e" d="M279.98 266.72v52.51s-37.64 8.37-54.59 2.24a16.869 16.869 0 01-4.34-2.24l6.88-58s-1.55-46.1 18.83-58.23l.74.17 16.83 3.8s8.31 6.35 11.52 25.84 4.13 33.91 4.13 33.91z"/><path class="m" d="M262.94 206.96l5.5 16.74-11.69 62.37 2.06 84.84h22.02l-3.13-124.46-3.67-23.69-2.6-.89-5.51-14.91z"/><path class="f" d="M247.5 203.15c-4.13 5.35-14.46 22-16.86 57-1.71 24.94-3.78 46.94-5.25 61.32a16.87 16.87 0 01-4.34-2.24l6.88-58s-1.55-46.1 18.83-58.23z"/><path class="m" d="M226.77 270.93h40.13v5.42h-40.13z"/><path class="e" d="M310.7 272l-31.34 15.13-9.82 3.44s-14.33 4.82-17.31-6.42c0 0-9.76-36.5-11.14-55.61a12.9 12.9 0 010-1.52 13.42 13.42 0 014.63-9.79c4.48-3.85 11.47-7.41 17.78-.26 0 0 7.16 14.13 5.1 30.48a38 38 0 000 9.88l1.16 8.48a15 15 0 001.57.61 21.71 21.71 0 0011.22.73l26.84-5.24 1.22 9z"/><path class="f" d="M310.7 272l-31.34 15.13-9.82 3.44s-14.33 4.82-17.31-6.42c0 0-9.76-36.5-11.14-55.61a12.9 12.9 0 010-1.52c4 16.4 14 58.31 16.45 59.28 3.13 1.23 5.12 2.67 10.77.53 4.82-1.83 33.75-12.94 42.27-15.91z"/><circle class="n" cx="2.98" cy="2.98" r="2.98" transform="translate(342.04 251.25)"/><circle class="n" cx="2.98" cy="2.98" r="2.98" transform="translate(340.58 240.74)"/><path class="n" d="M362.58 245.74l-19.57.96M362.65 246.7l-19.09 4.41"/><path class="d" d="M332.26 244h7.56l9.63-4.13s4.82-1.14 1.84 2.07a23.391 23.391 0 01-4.59 4.13s.23 5.17-2.06 6.14-11.23.3-11.23.3zM350.33 248.37h3.25a1.58 1.58 0 011.55 1.18 2.59 2.59 0 01-1.36 3c-2.65 1.61-7.07.16-7.07.16l2-3.27a1.81 1.81 0 011.63-1.07z"/><path class="o" d="M403.8 140.84h165.78v353.81H403.8z"/><path fill="#fff" d="M413.35 148.4h149.27v338.52H413.35z"/><path d="M556.91 148.4L413.36 277.5v22.93l149.27-140.89z" opacity=".81" fill="#e7ecff"/><g opacity=".12"><path class="s" d="M498.5 278l-1.38 12.23s2.14 7.95 5.81 9.18 11-1.2 13.15-1.83 2.75-9.64 2.75-9.64l-4.59-4.43-4.28-10.51z"/><ellipse class="s" cx="15.14" cy="11.54" rx="15.14" ry="11.54" transform="rotate(-85.31 397.124 -124.815)"/><path class="t" d="M512.72 275.65s-1.46-3.07 0-8.91c0 0-2.76-2.46-4.28 1.51s-3.37-.76-3.21-3.82-3.52-3.82-3.52-3.82-7.95-1.17-9.48-4.56-5.42-1.56-4.24-7.37 16.47-4 16.47-4l11.16.76s11.47 3.82 10.24 13.84-9.48 17.5-13.14 16.37z"/><rect width="56.87" height="109.76" rx="3.36" transform="translate(495.13 304.48)" fill="#ff9543"/><path class="s" d="M459.06 371.05s-14 5.51-12.38 15.37 15.36-7.23 15.36-7.23l3.67-6.3z"/><path class="v" d="M497.12 287.05l6.42 10.56 12-12.8 4.49 5s12.84.48 16.67 7.8 5.19 22.16 5.19 22.16l2.47 25.23s4.13 11.62-3.06 17.12-6.88 6.57-6.88 6.57l.61 22.55s3.83 16.89-8.1 17.2l-26.44 1.68s-10.09-1.83-10.4 9.17-10.55 66.65-10.55 66.65h-21.36l4.28-77.62s-.91-2.87-2.9 0-5 35.89-5 35.89L446.68 485l-20.33.91 1.68-73.67s8.25-23.5 18.34-26.89A63.4 63.4 0 00464.72 375l-8.41-3.36 17.58-17a51.6 51.6 0 004.4-16.05c.8-8.71 2.48-31.8 2.48-31.8s1.41-10.95 16.35-19.74z"/><path class="w" d="M496.99 413.88h46.6v3.87h-46.6z"/><path class="w" d="M510.73 416.68h7.8v69.25h-7.8z"/><path d="M522.35 319.46a85.443 85.443 0 013.55 8.71 63.324 63.324 0 012.46 9.1 27.059 27.059 0 01.32 9.46 10.651 10.651 0 01-1.81 4.47c-.49.62-.95 1.28-1.46 1.88l-1.57 1.78a183.652 183.652 0 01-13.8 12.83c-4.77 4.09-9.65 8-14.62 11.87l.17-.5 3.33 12.05-.65-.25c5.81-3.66 11.67-7.25 17.5-10.88s11.71-7.2 17.58-10.76q-8.61 5.65-17.27 11.24c-5.79 3.71-11.54 7.46-17.35 11.13l-.49.31-.16-.56-3.4-12-.08-.3.25-.2q7.38-5.84 14.57-11.84a180.248 180.248 0 0013.76-12.72l1.56-1.73c.52-.58 1-1.2 1.46-1.8a10 10 0 001.75-4.15 26.589 26.589 0 00-.16-9.24 81.374 81.374 0 00-5.44-17.9z" opacity=".08"/><path d="M467.09 374.49s19.26-10.78 24.07-19.15 1.15-35.88 1.15-35.88" stroke="#000" opacity=".08" stroke-miterlimit="10" stroke-linecap="round" fill="none"/><path class="s" d="M496.04 381.87s-17.34 1.33-20.76 10.71 16.9 1.22 16.9 1.22l6.28-3.69z"/></g><ellipse class="s" cx="14.64" cy="20.87" rx="14.64" ry="20.87" transform="rotate(-23.7 750.247 -718.788)"/><path class="s" d="M363.18 262.22v24.53l20.18 2.19s-5.2-24.2-2.14-28.18-18.04 1.46-18.04 1.46z"/><path class="t" d="M365.69 270.29s9.65.68 9.41-7.11-.24-10.24 3.43-8.79 4.35 1.45 5-3.82-3-8.26 2.29-11.24c0 0 4.82-8-8-9.17 0 0-12.61-.92-20.87 4.13s-7.34 8.25-7.34 8.25-.68 6.42 3.9 16.74 12.18 11.01 12.18 11.01z"/><path class="z" d="M440.18 475.29s-1.22 16.81 3.67 19.57 36.69 1.37 36.69 1.37.61-7.18-8.26-6.88-16.2-6.42-16.2-6.42l-5.51-7.64z"/><path class="z" d="M410.97 475.29s-1.22 16.81 3.67 19.57 36.69 1.37 36.69 1.37.61-7.18-8.26-6.88-16.2-6.42-16.2-6.42l-5.5-7.64z"/><path d="M362.39 275.65l22.32 5.5 4.89 4.28s16.2 2.45 19.26 16.51 24.77 76.74 24.77 76.74 14.67 1.84 16.51 20.18 7 78.27 7 78.27-13.76 8.4-18.35 2.37-13.14-67.94-13.14-67.94-5.2-8.72-5.81-2 5.5 67.57 5.5 67.57-11.62 8.49-15.59 4.55-16.57-78.44-16.57-78.44l-35.5-7.78L339.46 294s12.84-10.44 19.87-11.36z" fill="#346fba"/><g class="ab"><path class="ac" d="M395.31 326.49c1.88 4.32 3.66 8.68 5.42 13s3.45 8.75 5.17 13.13 3.35 8.8 5 13.22l2.4 6.63c.76 2.23 1.56 4.44 2.3 6.68-.95-2.16-1.84-4.34-2.76-6.5l-2.66-6.5c-1.76-4.36-3.45-8.75-5.17-13.13s-3.34-8.8-5-13.22-3.2-8.8-4.7-13.31z"/></g><g class="ab"><path class="ac" d="M410.74 380.89c3.81-.6 7.63-.9 11.46-1.13a107.93 107.93 0 0111.52-.14c-3.81.61-7.63.91-11.46 1.14a107.931 107.931 0 01-11.52.13z"/></g><path d="M321.84 294.74h63.75a12.73 12.73 0 0112.73 12.73v87.1a6.5 6.5 0 01-6.5 6.5h-76.2a6.5 6.5 0 01-6.5-6.5v-87.1a12.73 12.73 0 0112.72-12.73z" fill="#496387"/><path class="ae" d="M314.36 297.61h63.74a12.73 12.73 0 0112.73 12.73v87.1a6.5 6.5 0 01-6.5 6.5h-76.2a6.5 6.5 0 01-6.5-6.5v-87.1a12.73 12.73 0 0112.73-12.73z"/><path class="ae" d="M370.55 391.23h55.72a4.82 4.82 0 014.82 4.82v3.3a4.82 4.82 0 01-4.82 4.82h-55.72z"/><path class="w" d="M329.27 403.95h54.11v.41a7.91 7.91 0 01-7.91 7.91h-38.29a7.91 7.91 0 01-7.91-7.91z"/><path class="w" d="M351.9 408.43h9.17v78.5h-9.17z"/><circle class="w" cx="5.5" cy="5.5" r="5.5" transform="translate(318.27 485.17)"/><circle class="w" cx="5.5" cy="5.5" r="5.5" transform="translate(380.82 483.64)"/><path class="w" d="M317.04 482.72h73.78v6.42h-73.78z"/><path stroke-width="5" stroke="#9671ce" stroke-miterlimit="10" fill="none" d="M7.57 166.67h169.22v328.91H7.57z"/><path class="o" d="M7.57 246.08h169.22v4.12H7.57zM9.4 315.61h169.22v4.12H9.4zM9.4 399.01h169.22v4.12H9.4z"/><g class="ag"><path class="v" d="M143.54 200.57h12.38v43.87h-12.38zM147.15 194.18h5.16v6.39h-5.16z"/></g><g opacity=".74"><path class="v" d="M79.8 200.57h12.38v43.87H79.8zM83.41 194.18h5.16v6.39h-5.16z"/></g><path class="ai" d="M127.92 214.94h8.05v28.5h-8.05zM130.27 210.79h3.35v4.15h-3.35zM64.54 214.85h8.05v28.5h-8.05zM66.88 210.69h3.35v4.15h-3.35zM108.69 236.55h14.45v5.4h-14.45z"/><path class="aj" d="M683.77 440.07l10.09 2.75-14.22 51.14h-5.96zM820.49 442.22l10.16-2.47 12.86 54.21-5.83.31zM748.27 443.04l10.16-2.47 12.86 54.2-5.83.32z"/><path class="ak" d="M761.05 317.4s-40.36-3.9-41.28 15.59.92 21.32-14.67 24.53-24.54.92-28.89 15.6-3.9 57.09-3.9 57.09-4.13 16.53 8.94 14.23h71.57l83.67.23s6.65 0 4.58-9.86 8.26-117.72 8.26-117.72z"/><path class="al" d="M847.26 318.47h-91.49s-16.51-2-19.46 28.08c-.21 2.12-3 5.73-4.82 6.86-4.42 2.78-12.5 8.43-23.18 7.95-15.14-.69-19.49 15.2-19.49 15.2l-3.21 39.89 65.57 1.15 90.11-4.13z"/><path d="M841.3 316.55h-23.12s-12.54-2.1-7.13 16.53-7.37 25.16-7.37 25.16l-22.37 1.63s-21.14-6.05-26 17.24-2.46 67.32-2.46 67.32h72.51s8.84.7 7.12-9.78 8.82-118.1 8.82-118.1z" fill="#f69743"/><path d="M849.33 318.54h-21.56s-11.69-2.06-6.65 16.28-6.88 24.77-6.88 24.77l-20.86 1.6s-19.72-6-24.31 17-2.29 66.27-2.29 66.27h67.64s8.26.69 6.65-9.63 8.26-116.29 8.26-116.29z" fill="#ed7d2b"/><path class="ao" d="M67.03 278.19h23.31v37.42H67.03z"/><path class="ap" d="M67.03 282.62h17.58v6.32H67.03z"/><path class="ao" d="M74.33 360.48h23.31v37.42H74.33z"/><path class="ap" d="M74.33 364.91h17.58v6.32H74.33z"/><path class="ao" d="M118.61 360.48h23.31v37.42h-23.31z"/><path class="ap" d="M118.61 364.91h17.58v6.32h-17.58z"/><path class="o" d="M122.87 278.19h23.31v37.42h-23.31z"/><path opacity=".6" fill="#295095" d="M122.87 282.62h17.58v6.32h-17.58z"/><path d="M93.48 281.09h12.39l-2.61 27.29h-8.25z" fill="#b3c2fb"/><path fill="#f49a4c" opacity=".43" d="M95.01 308.38h8.18v7.23h-8.18z"/><path d="M147.9 280.71h12.39L157.68 308h-8.25z" opacity=".52" fill="#f49a4c"/><path opacity=".68" fill="#295095" d="M149.43 308h8.18v7.23h-8.18z"/><path class="av" d="M100.67 361.48h9.71l-2.04 27.28h-6.47z"/><path class="aw" d="M101.87 388.76h6.41v7.23h-6.41z"/><path class="av" d="M149.24 361.93h9.71l-2.04 27.29h-6.47z"/><path class="aw" d="M150.44 389.22h6.41v7.23h-6.41z"/><path opacity=".83" fill="#db6a1c" d="M567.55 389.48h71.43v104.48h-71.43z"/><path class="ak" d="M545.54 385.37h71.43v108.59h-71.43z"/><path class="al" d="M545.54 385.37h97.99v5.86h-97.99z"/><path class="ak" d="M617.04 385.37h26.48v5.86h-26.48z"/><path class="ai" d="M549.86 394.56h63.63v28.55h-63.63zM549.86 427.35h63.63v28.09h-63.63zM549.86 459.56h63.63v28.09h-63.63z"/><path class="ay" d="M571.3 399.6h19.6M571.3 433.77h19.6M571.3 465.52h19.6"/><path class="ai" d="M603.27 356.88h8.05v28.5h-8.05zM605.61 352.73h3.35v4.15h-3.35z"/><g class="ag"><path class="v" d="M615.23 346.9h10.81v38.29h-10.81zM618.38 341.32h4.5v5.58h-4.5z"/></g><path class="ai" d="M588.38 380.19h13.07v5.19h-13.07z"/><path class="w" d="M484.28 116.88h-47.92a24 24 0 0124-24 16.4 16.4 0 012.11.09 24 24 0 0121.81 23.91z"/><path d="M462.43 93c-5.34 3.08-13.71 9.83-20.37 23.87h-5.7a24 24 0 0124-24c.67.05 1.38.13 2.07.13z" opacity=".26" fill="#fff"/><path stroke="#5a5a5b" opacity=".75" stroke-width="2" stroke-miterlimit="10" fill="none" d="M460.32 53.47v39.45"/><path class="w" d="M630.29 254.23h109.89v9.12H630.29z"/><path d="M688.86 201.82s-2.07 22.28 22.18 17.27l-10.36-10.86s-2-5 3.83-1.75a42.092 42.092 0 019.06 7.51 7.28 7.28 0 007.15 2c4.36-1.17 10.74-3.39 13.67-7l-11.88-5.72s-5.56-3.51 1.3-3.36 15.94 3.83 15.94 3.83 11.44-5.63 11.16-11.09-6.73-13-13.45-13.53l-9.86 9s-5.84 4-5.31-.4 9.89-12.34 9.89-12.34-17.73-6.62-21.69 3c0 0-1.9 11.17-7.59 13.22s-2.07-2.07-2.07-2.07 5.72-9.64 4.62-14.13-11-2.43-17.49 7.13-.74 14.59-.74 14.59z" opacity=".79" fill="#78a41c"/><path class="bc" d="M677.6 185.63s-21.52-18 4.46-34.93l.38 18.8s2.67 6.19 5-1.83c1.46-5.11 1.53-11.71 1.38-15.83a7 7 0 013.36-6.2c4.77-2.85 13.29-7.26 19.57-6.64l-5.57 15.6s-1.83 8 4.13 1.83 10.78-17.49 10.78-17.49 15.13-5.1 19.72 0 5.5 17.49 0 23.91l-16.74.69s-8.71 1.6-4.36 5 19.72 2.3 19.72 2.3-9.91 21.55-21.92 16.5c0 0-11.56-8.25-18.44-5s0 3.67 0 3.67 13.3.17 16.29 5.14.22 11.6-14 8.85-21.1-8.72-21.1-8.72zM657.12 190.52a21.632 21.632 0 014.58 3.33 23.861 23.861 0 013.73 4.38 18.46 18.46 0 013.31 11.33l-.16 1.52c-.06.5-.13.9-.2 1.35-.16.88-.23 1.77-.37 2.66-.24 1.77-.39 3.56-.55 5.35-.25 3.6-.38 7.23-.36 10.95h-.2a57.115 57.115 0 01-1-11c0-1.85.1-3.69.25-5.53s.5-3.67.61-5.47a7.726 7.726 0 000-1.36 8.855 8.855 0 00-.07-1.36 17.4 17.4 0 00-.51-2.67 20.33 20.33 0 00-2.11-5 28 28 0 00-3.16-4.47 31.686 31.686 0 00-3.9-3.87z"/><path class="bc" d="M683.63 185.83c-.72 1.92-1.56 3.75-2.25 5.65s-1.46 3.73-2.16 5.59a49.471 49.471 0 00-1.79 5.58 17.481 17.481 0 00-.8 5.38c.06 2 .12 4.09.08 6.11s-.1 4.06-.27 6.09a95.5 95.5 0 01-1.53 12.1h-.2q.15-6 .16-12.1c0-4 0-8.07-.24-12.1a18.792 18.792 0 011-6 49.877 49.877 0 012.16-5.68 93.539 93.539 0 015.68-10.7zM692.97 198.45a18.319 18.319 0 00-6.24 6.94c-.39.66-.67 1.38-1 2.06a14.316 14.316 0 00-.81 2.16c-.22.74-.51 1.45-.68 2.22l-.3 1.12-.26 1.18c-.41 1.57-.75 3.16-1.11 4.74l-1.08 4.75c-.71 3.18-1.42 6.37-2.19 9.62h-.2a83.017 83.017 0 01.83-9.84c.45-3.27 1.07-6.51 1.8-9.72a27.6 27.6 0 013.7-9.16 15.37 15.37 0 017.51-6.27z"/><path d="M659.18 193.28s-8.7 20.61-27.7 4.73l14.26-4.67s4.11-3.48-2.55-3.36a42.571 42.571 0 00-11.53 2.33 7.28 7.28 0 01-7.25-1.62c-3.28-3.09-7.86-8.07-8.76-12.59l13.19.57s6.55-.47.44-3.58-15.86-4.16-15.86-4.16-7.42-10.36-4.59-15.05 12.07-8.27 18.25-5.56l4.42 12.61s3.25 6.28 4.86 2.16-2.83-15.59-2.83-15.59 18.75 2.55 17.7 12.89c0 0-3.61 10.74.44 15.25s2.8-.86 2.8-.86-.49-11.2 2.61-14.63 10.83 3.06 12 14.55-6.25 13.21-6.25 13.21z" fill="#739129"/><path d="M720.32 223.32a35.47 35.47 0 01-35.47 35.47 36.738 36.738 0 01-4.591-.289 35.48 35.48 0 01-30.879-35.181z" fill="#68340e"/><path d="M720.32 223.32a35.47 35.47 0 01-35.47 35.47 36.738 36.738 0 01-4.591-.289C704.87 245.18 712.15 231.72 714.1 223.32z" opacity=".15" fill="#e7ecff"/><rect width="58.59" height="58.59" rx="7.91" transform="translate(598.47 58.29)" stroke="#9671ce" stroke-width="4" stroke-miterlimit="10" fill="none"/><path class="w" d="M626.73 65.11h2.44v2.44h-2.44z"/><rect class="w" width="2.44" height="2.44" rx="1.22" transform="translate(626.38 85.55)"/><path class="w" d="M635.33 67.55h2.44v2.44h-2.44zM642.78 74.88h2.44v2.44h-2.44zM645.22 86.36h2.44v2.44h-2.44zM642.78 96.4h2.44v2.44h-2.44zM635.33 103.05h2.44v2.44h-2.44zM625.51 106.94h2.44v2.44h-2.44zM615.21 103.62h2.44v2.44h-2.44zM606.96 96.93h2.44v2.44h-2.44zM606.01 86.36h2.44v2.44h-2.44zM608.17 74.33h2.44v2.44h-2.44zM615.21 67.55h2.44v2.44h-2.44zM627.784 86.286l8.446-5.736.467.687-8.447 5.736z"/><path class="w" d="M627.29 86.5V70.64h.61V86.5z"/><path fill="#191919" d="M0 493.96h951.13v2.62H0z"/><g class="ab"><path class="ac" d="M359.33 282.68c2.54 0 5.08.16 7.6.31s5.06.35 7.58.57 5 .48 7.56.8l3.77.49c1.25.19 2.51.36 3.76.58-1.27 0-2.54-.06-3.81-.09l-3.79-.21c-2.53-.14-5.06-.36-7.58-.57s-5-.49-7.55-.81-5.03-.63-7.54-1.07z"/></g></g></svg>